HIERARCHY
ROOT Hips
{
 OFFSET 0.000000 0.000000 0.000000
 CHANNELS 6 Xposition Yposition Zposition Yrotation Xrotation Zrotation
 JOINT Chest
 {
  OFFSET 0.000000 9.585900 0.002600
  CHANNELS 3 Yrotation Xrotation Zrotation
  JOINT Chest2
  {
   OFFSET 0.000000 9.601200 -0.005300
   CHANNELS 3 Yrotation Xrotation Zrotation
   JOINT Chest3
   {
    OFFSET 0.000000 9.561800 0.000000
    CHANNELS 3 Yrotation Xrotation Zrotation
    JOINT Chest4
    {
     OFFSET 0.000000 9.552100 0.000000
     CHANNELS 3 Yrotation Xrotation Zrotation
     JOINT Neck
     {
      OFFSET 0.000000 14.453000 0.000000
      CHANNELS 3 Yrotation Xrotation Zrotation
      JOINT Head
      {
       OFFSET 0.000000 8.936500 -0.011300
       CHANNELS 3 Yrotation Xrotation Zrotation
       End Site
       {
        OFFSET 0.000000 17.073600 -0.006000
       }
      }
     }
     JOINT RightCollar
     {
      OFFSET -2.921100 9.558500 0.000000
      CHANNELS 3 Yrotation Xrotation Zrotation
      JOINT RightShoulder
      {
       OFFSET -13.519700 0.000000 0.000000
       CHANNELS 3 Yrotation Xrotation Zrotation
       JOINT RightElbow
       {
        OFFSET 0.000000 -29.696600 0.000000
        CHANNELS 3 Yrotation Xrotation Zrotation
        JOINT RightWrist
        {
         OFFSET 0.000000 -24.004700 0.000000
         CHANNELS 3 Yrotation Xrotation Zrotation
         End Site
         {
          OFFSET 0.000000 -17.728500 0.000000
         }
        }
       }
      }
     }
     JOINT LeftCollar
     {
      OFFSET 2.921100 9.558500 0.000000
      CHANNELS 3 Yrotation Xrotation Zrotation
      JOINT LeftShoulder
      {
       OFFSET 13.519700 0.000000 0.000000
       CHANNELS 3 Yrotation Xrotation Zrotation
       JOINT LeftElbow
       {
        OFFSET 0.000000 -29.696600 0.000000
        CHANNELS 3 Yrotation Xrotation Zrotation
        JOINT LeftWrist
        {
         OFFSET 0.000000 -24.004700 0.000000
         CHANNELS 3 Yrotation Xrotation Zrotation
         End Site
         {
          OFFSET 0.000000 -17.728500 0.000000
         }
        }
       }
      }
     }
    }
   }
  }
 }
 JOINT RightHip
 {
  OFFSET -7.771700 -0.012900 -0.001300
  CHANNELS 3 Yrotation Xrotation Zrotation
  JOINT RightKnee
  {
   OFFSET 0.000000 -40.869800 0.001200
   CHANNELS 3 Yrotation Xrotation Zrotation
   JOINT RightAnkle
   {
    OFFSET 0.000000 -39.717900 0.002100
    CHANNELS 3 Yrotation Xrotation Zrotation
    JOINT RightToe
    {
     OFFSET 0.000000 -4.965400 11.033500
     CHANNELS 3 Yrotation Xrotation Zrotation
     End Site
     {
      OFFSET 0.000000 -1.423100 5.872300
     }
    }
   }
  }
 }
 JOINT LeftHip
 {
  OFFSET 7.771700 -0.012900 -0.001300
  CHANNELS 3 Yrotation Xrotation Zrotation
  JOINT LeftKnee
  {
   OFFSET 0.000000 -40.869800 0.001200
   CHANNELS 3 Yrotation Xrotation Zrotation
   JOINT LeftAnkle
   {
    OFFSET 0.000000 -39.717900 0.002100
    CHANNELS 3 Yrotation Xrotation Zrotation
    JOINT LeftToe
    {
     OFFSET 0.000000 -4.965400 11.033500
     CHANNELS 3 Yrotation Xrotation Zrotation
     End Site
     {
      OFFSET 0.000000 -1.423100 5.872300
     }
    }
   }
  }
 }
}
MOTION
Frames: 11
Frame Time: 0.008333
-10.212441 55.718444 19.739119 -176.076018 -31.495832 -10.277143 -2.198868 15.286042 6.030138 -1.011570 8.787724 2.156681 -1.191489 10.980015 2.672618 -1.006583 8.787400 2.155938 1.755805 17.593945 -3.065644 2.566539 -7.087574 -3.647823 6.907367 -5.516356 -4.620737 -0.811458 -24.922783 1.075713 49.677384 -33.581688 -30.765055 9.820644 6.331711 -16.185537 -12.183195 -3.651283 -4.560991 -8.604297 -23.291734 3.188539 -52.185567 -27.839704 45.571362 -1.293805 0.432286 3.221624 -19.545072 -27.990817 6.198193 93.511043 88.097948 92.088568 2.080569 -26.919816 -3.399590 -0.216673 1.715972 -0.096683 -10.622258 -44.611772 10.565811 174.950300 73.009908 172.955574 -1.404427 -24.329224 1.578042 -0.655330 -2.384554 -0.294654
-10.213632 55.717279 19.738628 -176.092433 -31.479818 -10.274949 -2.200073 15.279474 6.035340 -1.016036 8.787557 2.157460 -1.197217 10.980859 2.674657 -1.012109 8.787756 2.156620 1.768060 17.637092 -3.067466 2.581054 -7.008917 -3.645778 6.935191 -5.549383 -4.656396 -0.802982 -24.909059 1.087082 49.656147 -33.551451 -30.718823 9.820816 6.314043 -16.217965 -12.166382 -3.674223 -4.564632 -8.604290 -23.263968 3.189009 -52.157091 -27.841273 45.578267 -1.304932 0.414553 3.217350 -19.539013 -28.007482 6.212709 93.558377 88.098730 92.135026 2.079869 -26.920805 -3.398503 -0.217658 1.716833 -0.095784 -10.620645 -44.630241 10.576120 174.951543 73.005287 172.956586 -1.399336 -24.328794 1.578611 -0.657657 -2.388057 -0.295526
-10.215502 55.716487 19.737085 -176.102437 -31.468407 -10.272976 -2.205271 15.278038 6.037545 -1.016318 8.784447 2.157733 -1.209369 10.984594 2.675855 -1.015766 8.788020 2.157335 1.774118 17.723794 -3.053020 2.601735 -6.966811 -3.659009 6.962212 -5.578024 -4.688596 -0.797281 -24.897958 1.100558 49.639345 -33.518557 -30.678101 9.814050 6.311766 -16.251322 -12.157147 -3.691679 -4.564646 -8.597812 -23.248649 3.189079 -52.113542 -27.837074 45.582388 -1.332140 0.385287 3.190576 -19.531244 -28.020399 6.224321 93.672106 88.103688 92.246634 2.070741 -26.918666 -3.390434 -0.214334 1.712081 -0.094249 -10.619630 -44.642174 10.580747 174.950161 73.001429 172.955248 -1.399577 -24.331141 1.578333 -0.656146 -2.388852 -0.294301
-10.218166 55.715527 19.735441 -176.110332 -31.455617 -10.267980 -2.213117 15.274569 6.036141 -1.008000 8.777415 2.156478 -1.227008 10.988492 2.681008 -1.020641 8.786379 2.158370 1.783778 17.775334 -3.053210 2.615143 -6.907341 -3.658330 6.983080 -5.620635 -4.738874 -0.786582 -24.885130 1.134716 49.609518 -33.471242 -30.626046 9.816558 6.306000 -16.282229 -12.143957 -3.702902 -4.567134 -8.589633 -23.238092 3.187144 -52.053732 -27.801558 45.551606 -1.348325 0.326072 3.193696 -19.523682 -28.034633 6.229685 93.777399 88.104366 92.349925 2.064658 -26.921922 -3.384162 -0.212390 1.711856 -0.093441 -10.621398 -44.655057 10.581738 174.951939 72.999150 172.953621 -1.398351 -24.334086 1.576959 -0.655503 -2.388296 -0.292660
-10.220421 55.714687 19.733633 -176.116577 -31.442387 -10.266842 -2.215836 15.265581 6.038414 -1.019468 8.780738 2.155827 -1.233604 10.985895 2.679803 -1.046063 8.782648 2.162325 1.812426 17.845572 -3.051426 2.628683 -6.858705 -3.661345 7.029176 -5.638190 -4.771534 -0.786627 -24.868471 1.151401 49.603031 -33.444038 -30.592299 9.813389 6.298801 -16.318030 -12.100067 -3.713834 -4.577294 -8.588815 -23.224531 3.189157 -52.017468 -27.784929 45.534468 -1.367651 0.297195 3.187685 -19.523300 -28.044754 6.237565 93.783035 88.103957 92.351752 2.063692 -26.931703 -3.382900 -0.213436 1.718154 -0.091899 -10.630717 -44.671564 10.585577 174.939566 72.991401 172.937914 -1.389573 -24.324941 1.573254 -0.663369 -2.400014 -0.294231
-10.222549 55.714004 19.731564 -176.121159 -31.429621 -10.267476 -2.219822 15.256768 6.041933 -1.030958 8.781927 2.156305 -1.255578 10.984579 2.681626 -1.016535 8.780650 2.149804 1.807406 17.903862 -3.035256 2.638340 -6.856624 -3.673075 7.035137 -5.659760 -4.789132 -0.792093 -24.870003 1.169743 49.584894 -33.406866 -30.541029 9.813467 6.284599 -16.346866 -12.105017 -3.720922 -4.571327 -8.581950 -23.215252 3.191448 -51.982093 -27.767360 45.515178 -1.378634 0.270452 3.194323 -19.525386 -28.053741 6.244522 93.787948 88.102199 92.354560 2.063019 -26.939423 -3.383486 -0.213293 1.721765 -0.090605 -10.643444 -44.684170 10.592986 174.933988 72.987141 172.929273 -1.389569 -24.324562 1.568908 -0.661409 -2.403291 -0.293096
-10.225355 55.713896 19.728342 -176.127278 -31.424345 -10.263111 -2.228523 15.260169 6.038158 -1.050716 8.785059 2.160564 -1.251076 10.977622 2.678218 -1.014548 8.778455 2.148068 1.814740 17.968161 -3.027445 2.646178 -6.755001 -3.659786 7.057468 -5.674073 -4.812985 -0.785709 -24.869681 1.175410 49.558012 -33.382156 -30.494149 9.811815 6.271164 -16.374482 -12.095712 -3.729637 -4.575932 -8.570431 -23.208332 3.190618 -51.962815 -27.760065 45.504692 -1.392404 0.253566 3.189676 -19.521856 -28.056755 6.243435 93.811448 88.099062 92.375401 2.061798 -26.948624 -3.383599 -0.214886 1.725295 -0.091066 -10.648886 -44.683306 10.592698 174.962117 72.988594 172.951728 -1.383791 -24.338880 1.565604 -0.655753 -2.393308 -0.292119
-10.227897 55.713883 19.724995 -176.128445 -31.418763 -10.261881 -2.250144 15.271129 6.040815 -1.042011 8.775376 2.154870 -1.260605 10.976298 2.679624 -1.020658 8.773829 2.145072 1.825381 18.040638 -3.015213 2.654096 -6.645228 -3.644105 7.082585 -5.674838 -4.827066 -0.774410 -24.885721 1.169270 49.522072 -33.360469 -30.438637 9.814527 6.267123 -16.410080 -12.078523 -3.736495 -4.576472 -8.558150 -23.202239 3.180591 -51.958091 -27.750512 45.493919 -1.411916 0.249962 3.187540 -19.522383 -28.058592 6.240939 93.831164 88.097472 92.394597 2.064472 -26.956768 -3.386229 -0.215332 1.728578 -0.089550 -10.652840 -44.685498 10.593195 174.968996 72.987501 172.955245 -1.388129 -24.345742 1.568607 -0.653072 -2.390243 -0.292840
-10.230266 55.713368 19.722402 -176.131836 -31.408112 -10.258676 -2.257715 15.267458 6.042634 -1.047114 8.774019 2.154842 -1.266986 10.974584 2.679457 -1.029583 8.774734 2.146306 1.837425 18.091969 -3.012952 2.655981 -6.548875 -3.627764 7.100935 -5.696195 -4.856509 -0.765966 -24.908875 1.173487 49.472009 -33.329077 -30.357355 9.807188 6.261690 -16.442677 -12.056258 -3.750384 -4.577894 -8.552882 -23.193376 3.175038 -51.898591 -27.727428 45.480312 -1.438496 0.196922 3.169088 -19.521234 -28.066737 6.239981 93.856528 88.095193 92.420421 2.065563 -26.966009 -3.388884 -0.215245 1.732487 -0.088609 -10.653979 -44.694288 10.593542 174.971381 72.986061 172.954775 -1.391917 -24.352483 1.571862 -0.655340 -2.386602 -0.292860
-10.218334 55.713035 19.723473 -176.102641 -31.369370 -10.356076 -2.272765 15.246010 6.131891 -1.052076 8.771114 2.155643 -1.264934 10.971109 2.675951 -1.061433 8.775811 2.160781 1.865140 18.109518 -3.033505 2.649857 -6.418672 -3.595033 7.131933 -5.721286 -4.900470 -0.763115 -24.903643 1.192500 49.437809 -33.305457 -30.302715 9.809876 6.249665 -16.468499 -12.024847 -3.766567 -4.591603 -8.553421 -23.184224 3.174678 -51.826600 -27.687524 45.439310 -1.452927 0.133957 3.180208 -19.589345 -27.994361 6.324001 90.958013 88.081882 89.508984 2.175916 -27.156454 -3.387124 -0.313761 1.945983 -0.133803 -10.768814 -44.712767 10.716112 174.977530 72.980796 172.963735 -1.348594 -24.406509 1.571391 -0.696793 -2.339267 -0.311002
-10.220148 55.712625 19.720987 -176.105947 -31.359433 -10.353336 -2.278374 15.246037 6.132108 -1.056145 8.769800 2.156110 -1.261588 10.965933 2.674864 -1.073480 8.777684 2.164412 1.860203 18.230853 -3.004846 2.659027 -6.397921 -3.607320 7.149892 -5.732833 -4.919189 -0.764850 -24.915720 1.201655 49.410283 -33.279353 -30.253606 9.784937 6.256812 -16.502263 -12.018624 -3.789141 -4.580427 -8.541693 -23.170783 3.160759 -51.797138 -27.679802 45.427046 -1.467643 0.121844 3.179552 -19.587699 -28.002463 6.324382 91.011021 88.080066 89.561813 2.177330 -27.161946 -3.389177 -0.313304 1.946496 -0.133733 -10.765095 -44.722697 10.717083 174.983991 72.977876 172.966904 -1.348431 -24.408822 1.577704 -0.700022 -2.341050 -0.311828
